%TF.GenerationSoftware,KiCad,Pcbnew,7.0.8*%
%TF.CreationDate,2023-10-16T16:24:13-07:00*%
%TF.ProjectId,KiCad_Lab2_ConnorRoane,4b694361-645f-44c6-9162-325f436f6e6e,rev?*%
%TF.SameCoordinates,Original*%
%TF.FileFunction,Legend,Top*%
%TF.FilePolarity,Positive*%
%FSLAX46Y46*%
G04 Gerber Fmt 4.6, Leading zero omitted, Abs format (unit mm)*
G04 Created by KiCad (PCBNEW 7.0.8) date 2023-10-16 16:24:13*
%MOMM*%
%LPD*%
G01*
G04 APERTURE LIST*
%ADD10C,0.150000*%
%ADD11C,0.120000*%
G04 APERTURE END LIST*
D10*
X120288207Y-91214580D02*
X120240588Y-91262200D01*
X120240588Y-91262200D02*
X120097731Y-91309819D01*
X120097731Y-91309819D02*
X120002493Y-91309819D01*
X120002493Y-91309819D02*
X119859636Y-91262200D01*
X119859636Y-91262200D02*
X119764398Y-91166961D01*
X119764398Y-91166961D02*
X119716779Y-91071723D01*
X119716779Y-91071723D02*
X119669160Y-90881247D01*
X119669160Y-90881247D02*
X119669160Y-90738390D01*
X119669160Y-90738390D02*
X119716779Y-90547914D01*
X119716779Y-90547914D02*
X119764398Y-90452676D01*
X119764398Y-90452676D02*
X119859636Y-90357438D01*
X119859636Y-90357438D02*
X120002493Y-90309819D01*
X120002493Y-90309819D02*
X120097731Y-90309819D01*
X120097731Y-90309819D02*
X120240588Y-90357438D01*
X120240588Y-90357438D02*
X120288207Y-90405057D01*
X120716779Y-91214580D02*
X120764398Y-91262200D01*
X120764398Y-91262200D02*
X120716779Y-91309819D01*
X120716779Y-91309819D02*
X120669160Y-91262200D01*
X120669160Y-91262200D02*
X120716779Y-91214580D01*
X120716779Y-91214580D02*
X120716779Y-91309819D01*
X121764397Y-91309819D02*
X121431064Y-90833628D01*
X121192969Y-91309819D02*
X121192969Y-90309819D01*
X121192969Y-90309819D02*
X121573921Y-90309819D01*
X121573921Y-90309819D02*
X121669159Y-90357438D01*
X121669159Y-90357438D02*
X121716778Y-90405057D01*
X121716778Y-90405057D02*
X121764397Y-90500295D01*
X121764397Y-90500295D02*
X121764397Y-90643152D01*
X121764397Y-90643152D02*
X121716778Y-90738390D01*
X121716778Y-90738390D02*
X121669159Y-90786009D01*
X121669159Y-90786009D02*
X121573921Y-90833628D01*
X121573921Y-90833628D02*
X121192969Y-90833628D01*
X122335826Y-91309819D02*
X122240588Y-91262200D01*
X122240588Y-91262200D02*
X122192969Y-91214580D01*
X122192969Y-91214580D02*
X122145350Y-91119342D01*
X122145350Y-91119342D02*
X122145350Y-90833628D01*
X122145350Y-90833628D02*
X122192969Y-90738390D01*
X122192969Y-90738390D02*
X122240588Y-90690771D01*
X122240588Y-90690771D02*
X122335826Y-90643152D01*
X122335826Y-90643152D02*
X122478683Y-90643152D01*
X122478683Y-90643152D02*
X122573921Y-90690771D01*
X122573921Y-90690771D02*
X122621540Y-90738390D01*
X122621540Y-90738390D02*
X122669159Y-90833628D01*
X122669159Y-90833628D02*
X122669159Y-91119342D01*
X122669159Y-91119342D02*
X122621540Y-91214580D01*
X122621540Y-91214580D02*
X122573921Y-91262200D01*
X122573921Y-91262200D02*
X122478683Y-91309819D01*
X122478683Y-91309819D02*
X122335826Y-91309819D01*
X123526302Y-91309819D02*
X123526302Y-90786009D01*
X123526302Y-90786009D02*
X123478683Y-90690771D01*
X123478683Y-90690771D02*
X123383445Y-90643152D01*
X123383445Y-90643152D02*
X123192969Y-90643152D01*
X123192969Y-90643152D02*
X123097731Y-90690771D01*
X123526302Y-91262200D02*
X123431064Y-91309819D01*
X123431064Y-91309819D02*
X123192969Y-91309819D01*
X123192969Y-91309819D02*
X123097731Y-91262200D01*
X123097731Y-91262200D02*
X123050112Y-91166961D01*
X123050112Y-91166961D02*
X123050112Y-91071723D01*
X123050112Y-91071723D02*
X123097731Y-90976485D01*
X123097731Y-90976485D02*
X123192969Y-90928866D01*
X123192969Y-90928866D02*
X123431064Y-90928866D01*
X123431064Y-90928866D02*
X123526302Y-90881247D01*
X124002493Y-90643152D02*
X124002493Y-91309819D01*
X124002493Y-90738390D02*
X124050112Y-90690771D01*
X124050112Y-90690771D02*
X124145350Y-90643152D01*
X124145350Y-90643152D02*
X124288207Y-90643152D01*
X124288207Y-90643152D02*
X124383445Y-90690771D01*
X124383445Y-90690771D02*
X124431064Y-90786009D01*
X124431064Y-90786009D02*
X124431064Y-91309819D01*
X125288207Y-91262200D02*
X125192969Y-91309819D01*
X125192969Y-91309819D02*
X125002493Y-91309819D01*
X125002493Y-91309819D02*
X124907255Y-91262200D01*
X124907255Y-91262200D02*
X124859636Y-91166961D01*
X124859636Y-91166961D02*
X124859636Y-90786009D01*
X124859636Y-90786009D02*
X124907255Y-90690771D01*
X124907255Y-90690771D02*
X125002493Y-90643152D01*
X125002493Y-90643152D02*
X125192969Y-90643152D01*
X125192969Y-90643152D02*
X125288207Y-90690771D01*
X125288207Y-90690771D02*
X125335826Y-90786009D01*
X125335826Y-90786009D02*
X125335826Y-90881247D01*
X125335826Y-90881247D02*
X124859636Y-90976485D01*
X87566666Y-85354819D02*
X87233333Y-84878628D01*
X86995238Y-85354819D02*
X86995238Y-84354819D01*
X86995238Y-84354819D02*
X87376190Y-84354819D01*
X87376190Y-84354819D02*
X87471428Y-84402438D01*
X87471428Y-84402438D02*
X87519047Y-84450057D01*
X87519047Y-84450057D02*
X87566666Y-84545295D01*
X87566666Y-84545295D02*
X87566666Y-84688152D01*
X87566666Y-84688152D02*
X87519047Y-84783390D01*
X87519047Y-84783390D02*
X87471428Y-84831009D01*
X87471428Y-84831009D02*
X87376190Y-84878628D01*
X87376190Y-84878628D02*
X86995238Y-84878628D01*
X87995238Y-84831009D02*
X88328571Y-84831009D01*
X88471428Y-85354819D02*
X87995238Y-85354819D01*
X87995238Y-85354819D02*
X87995238Y-84354819D01*
X87995238Y-84354819D02*
X88471428Y-84354819D01*
X89233333Y-84831009D02*
X88900000Y-84831009D01*
X88900000Y-85354819D02*
X88900000Y-84354819D01*
X88900000Y-84354819D02*
X89376190Y-84354819D01*
X89900000Y-84354819D02*
X89900000Y-84592914D01*
X89661905Y-84497676D02*
X89900000Y-84592914D01*
X89900000Y-84592914D02*
X90138095Y-84497676D01*
X89757143Y-84783390D02*
X89900000Y-84592914D01*
X89900000Y-84592914D02*
X90042857Y-84783390D01*
X90661905Y-84354819D02*
X90661905Y-84592914D01*
X90423810Y-84497676D02*
X90661905Y-84592914D01*
X90661905Y-84592914D02*
X90900000Y-84497676D01*
X90519048Y-84783390D02*
X90661905Y-84592914D01*
X90661905Y-84592914D02*
X90804762Y-84783390D01*
X102265595Y-72314819D02*
X102265595Y-73124342D01*
X102265595Y-73124342D02*
X102313214Y-73219580D01*
X102313214Y-73219580D02*
X102360833Y-73267200D01*
X102360833Y-73267200D02*
X102456071Y-73314819D01*
X102456071Y-73314819D02*
X102646547Y-73314819D01*
X102646547Y-73314819D02*
X102741785Y-73267200D01*
X102741785Y-73267200D02*
X102789404Y-73219580D01*
X102789404Y-73219580D02*
X102837023Y-73124342D01*
X102837023Y-73124342D02*
X102837023Y-72314819D01*
X103837023Y-73314819D02*
X103265595Y-73314819D01*
X103551309Y-73314819D02*
X103551309Y-72314819D01*
X103551309Y-72314819D02*
X103456071Y-72457676D01*
X103456071Y-72457676D02*
X103360833Y-72552914D01*
X103360833Y-72552914D02*
X103265595Y-72600533D01*
X91273333Y-80084819D02*
X90940000Y-79608628D01*
X90701905Y-80084819D02*
X90701905Y-79084819D01*
X90701905Y-79084819D02*
X91082857Y-79084819D01*
X91082857Y-79084819D02*
X91178095Y-79132438D01*
X91178095Y-79132438D02*
X91225714Y-79180057D01*
X91225714Y-79180057D02*
X91273333Y-79275295D01*
X91273333Y-79275295D02*
X91273333Y-79418152D01*
X91273333Y-79418152D02*
X91225714Y-79513390D01*
X91225714Y-79513390D02*
X91178095Y-79561009D01*
X91178095Y-79561009D02*
X91082857Y-79608628D01*
X91082857Y-79608628D02*
X90701905Y-79608628D01*
X92130476Y-79418152D02*
X92130476Y-80084819D01*
X91892381Y-79037200D02*
X91654286Y-79751485D01*
X91654286Y-79751485D02*
X92273333Y-79751485D01*
X91273333Y-72464819D02*
X90940000Y-71988628D01*
X90701905Y-72464819D02*
X90701905Y-71464819D01*
X90701905Y-71464819D02*
X91082857Y-71464819D01*
X91082857Y-71464819D02*
X91178095Y-71512438D01*
X91178095Y-71512438D02*
X91225714Y-71560057D01*
X91225714Y-71560057D02*
X91273333Y-71655295D01*
X91273333Y-71655295D02*
X91273333Y-71798152D01*
X91273333Y-71798152D02*
X91225714Y-71893390D01*
X91225714Y-71893390D02*
X91178095Y-71941009D01*
X91178095Y-71941009D02*
X91082857Y-71988628D01*
X91082857Y-71988628D02*
X90701905Y-71988628D01*
X91606667Y-71464819D02*
X92225714Y-71464819D01*
X92225714Y-71464819D02*
X91892381Y-71845771D01*
X91892381Y-71845771D02*
X92035238Y-71845771D01*
X92035238Y-71845771D02*
X92130476Y-71893390D01*
X92130476Y-71893390D02*
X92178095Y-71941009D01*
X92178095Y-71941009D02*
X92225714Y-72036247D01*
X92225714Y-72036247D02*
X92225714Y-72274342D01*
X92225714Y-72274342D02*
X92178095Y-72369580D01*
X92178095Y-72369580D02*
X92130476Y-72417200D01*
X92130476Y-72417200D02*
X92035238Y-72464819D01*
X92035238Y-72464819D02*
X91749524Y-72464819D01*
X91749524Y-72464819D02*
X91654286Y-72417200D01*
X91654286Y-72417200D02*
X91606667Y-72369580D01*
X93813333Y-64844819D02*
X93480000Y-64368628D01*
X93241905Y-64844819D02*
X93241905Y-63844819D01*
X93241905Y-63844819D02*
X93622857Y-63844819D01*
X93622857Y-63844819D02*
X93718095Y-63892438D01*
X93718095Y-63892438D02*
X93765714Y-63940057D01*
X93765714Y-63940057D02*
X93813333Y-64035295D01*
X93813333Y-64035295D02*
X93813333Y-64178152D01*
X93813333Y-64178152D02*
X93765714Y-64273390D01*
X93765714Y-64273390D02*
X93718095Y-64321009D01*
X93718095Y-64321009D02*
X93622857Y-64368628D01*
X93622857Y-64368628D02*
X93241905Y-64368628D01*
X94194286Y-63940057D02*
X94241905Y-63892438D01*
X94241905Y-63892438D02*
X94337143Y-63844819D01*
X94337143Y-63844819D02*
X94575238Y-63844819D01*
X94575238Y-63844819D02*
X94670476Y-63892438D01*
X94670476Y-63892438D02*
X94718095Y-63940057D01*
X94718095Y-63940057D02*
X94765714Y-64035295D01*
X94765714Y-64035295D02*
X94765714Y-64130533D01*
X94765714Y-64130533D02*
X94718095Y-64273390D01*
X94718095Y-64273390D02*
X94146667Y-64844819D01*
X94146667Y-64844819D02*
X94765714Y-64844819D01*
X103973333Y-64844819D02*
X103640000Y-64368628D01*
X103401905Y-64844819D02*
X103401905Y-63844819D01*
X103401905Y-63844819D02*
X103782857Y-63844819D01*
X103782857Y-63844819D02*
X103878095Y-63892438D01*
X103878095Y-63892438D02*
X103925714Y-63940057D01*
X103925714Y-63940057D02*
X103973333Y-64035295D01*
X103973333Y-64035295D02*
X103973333Y-64178152D01*
X103973333Y-64178152D02*
X103925714Y-64273390D01*
X103925714Y-64273390D02*
X103878095Y-64321009D01*
X103878095Y-64321009D02*
X103782857Y-64368628D01*
X103782857Y-64368628D02*
X103401905Y-64368628D01*
X104925714Y-64844819D02*
X104354286Y-64844819D01*
X104640000Y-64844819D02*
X104640000Y-63844819D01*
X104640000Y-63844819D02*
X104544762Y-63987676D01*
X104544762Y-63987676D02*
X104449524Y-64082914D01*
X104449524Y-64082914D02*
X104354286Y-64130533D01*
X112716666Y-57594819D02*
X112716666Y-58309104D01*
X112716666Y-58309104D02*
X112669047Y-58451961D01*
X112669047Y-58451961D02*
X112573809Y-58547200D01*
X112573809Y-58547200D02*
X112430952Y-58594819D01*
X112430952Y-58594819D02*
X112335714Y-58594819D01*
X113716666Y-58594819D02*
X113145238Y-58594819D01*
X113430952Y-58594819D02*
X113430952Y-57594819D01*
X113430952Y-57594819D02*
X113335714Y-57737676D01*
X113335714Y-57737676D02*
X113240476Y-57832914D01*
X113240476Y-57832914D02*
X113145238Y-57880533D01*
X101914405Y-87534819D02*
X101914405Y-86534819D01*
X101914405Y-86534819D02*
X102152500Y-86534819D01*
X102152500Y-86534819D02*
X102295357Y-86582438D01*
X102295357Y-86582438D02*
X102390595Y-86677676D01*
X102390595Y-86677676D02*
X102438214Y-86772914D01*
X102438214Y-86772914D02*
X102485833Y-86963390D01*
X102485833Y-86963390D02*
X102485833Y-87106247D01*
X102485833Y-87106247D02*
X102438214Y-87296723D01*
X102438214Y-87296723D02*
X102390595Y-87391961D01*
X102390595Y-87391961D02*
X102295357Y-87487200D01*
X102295357Y-87487200D02*
X102152500Y-87534819D01*
X102152500Y-87534819D02*
X101914405Y-87534819D01*
X102866786Y-86630057D02*
X102914405Y-86582438D01*
X102914405Y-86582438D02*
X103009643Y-86534819D01*
X103009643Y-86534819D02*
X103247738Y-86534819D01*
X103247738Y-86534819D02*
X103342976Y-86582438D01*
X103342976Y-86582438D02*
X103390595Y-86630057D01*
X103390595Y-86630057D02*
X103438214Y-86725295D01*
X103438214Y-86725295D02*
X103438214Y-86820533D01*
X103438214Y-86820533D02*
X103390595Y-86963390D01*
X103390595Y-86963390D02*
X102819167Y-87534819D01*
X102819167Y-87534819D02*
X103438214Y-87534819D01*
X112630833Y-84179580D02*
X112583214Y-84227200D01*
X112583214Y-84227200D02*
X112440357Y-84274819D01*
X112440357Y-84274819D02*
X112345119Y-84274819D01*
X112345119Y-84274819D02*
X112202262Y-84227200D01*
X112202262Y-84227200D02*
X112107024Y-84131961D01*
X112107024Y-84131961D02*
X112059405Y-84036723D01*
X112059405Y-84036723D02*
X112011786Y-83846247D01*
X112011786Y-83846247D02*
X112011786Y-83703390D01*
X112011786Y-83703390D02*
X112059405Y-83512914D01*
X112059405Y-83512914D02*
X112107024Y-83417676D01*
X112107024Y-83417676D02*
X112202262Y-83322438D01*
X112202262Y-83322438D02*
X112345119Y-83274819D01*
X112345119Y-83274819D02*
X112440357Y-83274819D01*
X112440357Y-83274819D02*
X112583214Y-83322438D01*
X112583214Y-83322438D02*
X112630833Y-83370057D01*
X113011786Y-83370057D02*
X113059405Y-83322438D01*
X113059405Y-83322438D02*
X113154643Y-83274819D01*
X113154643Y-83274819D02*
X113392738Y-83274819D01*
X113392738Y-83274819D02*
X113487976Y-83322438D01*
X113487976Y-83322438D02*
X113535595Y-83370057D01*
X113535595Y-83370057D02*
X113583214Y-83465295D01*
X113583214Y-83465295D02*
X113583214Y-83560533D01*
X113583214Y-83560533D02*
X113535595Y-83703390D01*
X113535595Y-83703390D02*
X112964167Y-84274819D01*
X112964167Y-84274819D02*
X113583214Y-84274819D01*
X112695833Y-74809580D02*
X112648214Y-74857200D01*
X112648214Y-74857200D02*
X112505357Y-74904819D01*
X112505357Y-74904819D02*
X112410119Y-74904819D01*
X112410119Y-74904819D02*
X112267262Y-74857200D01*
X112267262Y-74857200D02*
X112172024Y-74761961D01*
X112172024Y-74761961D02*
X112124405Y-74666723D01*
X112124405Y-74666723D02*
X112076786Y-74476247D01*
X112076786Y-74476247D02*
X112076786Y-74333390D01*
X112076786Y-74333390D02*
X112124405Y-74142914D01*
X112124405Y-74142914D02*
X112172024Y-74047676D01*
X112172024Y-74047676D02*
X112267262Y-73952438D01*
X112267262Y-73952438D02*
X112410119Y-73904819D01*
X112410119Y-73904819D02*
X112505357Y-73904819D01*
X112505357Y-73904819D02*
X112648214Y-73952438D01*
X112648214Y-73952438D02*
X112695833Y-74000057D01*
X113648214Y-74904819D02*
X113076786Y-74904819D01*
X113362500Y-74904819D02*
X113362500Y-73904819D01*
X113362500Y-73904819D02*
X113267262Y-74047676D01*
X113267262Y-74047676D02*
X113172024Y-74142914D01*
X113172024Y-74142914D02*
X113076786Y-74190533D01*
D11*
%TO.C,U1*%
X103027500Y-73700000D02*
X104977500Y-73700000D01*
X103027500Y-73700000D02*
X99577500Y-73700000D01*
X103027500Y-78820000D02*
X101077500Y-78820000D01*
X103027500Y-78820000D02*
X104977500Y-78820000D01*
%TO.C,R4*%
X91212936Y-80545000D02*
X91667064Y-80545000D01*
X91212936Y-82015000D02*
X91667064Y-82015000D01*
%TO.C,R3*%
X91212936Y-72925000D02*
X91667064Y-72925000D01*
X91212936Y-74395000D02*
X91667064Y-74395000D01*
%TO.C,R2*%
X93752936Y-66775000D02*
X94207064Y-66775000D01*
X93752936Y-65305000D02*
X94207064Y-65305000D01*
%TO.C,R1*%
X103912936Y-65305000D02*
X104367064Y-65305000D01*
X103912936Y-66775000D02*
X104367064Y-66775000D01*
%TO.C,J1*%
X114620000Y-61030000D02*
X114620000Y-64450000D01*
X115690000Y-60450000D02*
X115690000Y-65450000D01*
X110410000Y-64450000D02*
X115690000Y-64450000D01*
X115690000Y-67650000D02*
X115690000Y-65450000D01*
X114300000Y-60950000D02*
X114620000Y-61030000D01*
X114620000Y-64450000D02*
X114300000Y-64450000D01*
X112970000Y-65450000D02*
X113130000Y-65450000D01*
X111800000Y-67540000D02*
X111500000Y-68140000D01*
X116910000Y-59230000D02*
X116910000Y-67650000D01*
X110410000Y-60450000D02*
X110410000Y-65450000D01*
X109190000Y-60450000D02*
X110410000Y-60450000D01*
X111800000Y-64450000D02*
X111480000Y-64450000D01*
X111500000Y-68140000D02*
X112100000Y-68140000D01*
X111480000Y-64450000D02*
X111480000Y-61030000D01*
X112100000Y-68140000D02*
X111800000Y-67540000D01*
X111800000Y-60950000D02*
X112120000Y-61030000D01*
X110410000Y-67650000D02*
X109190000Y-67650000D01*
X114300000Y-64450000D02*
X113980000Y-64450000D01*
X116910000Y-67650000D02*
X115690000Y-67650000D01*
X109190000Y-59230000D02*
X116910000Y-59230000D01*
X113980000Y-61030000D02*
X114300000Y-60950000D01*
X111480000Y-61030000D02*
X111800000Y-60950000D01*
X109190000Y-67650000D02*
X109190000Y-59230000D01*
X112120000Y-64450000D02*
X111800000Y-64450000D01*
X115690000Y-65450000D02*
X116910000Y-65450000D01*
X110410000Y-65450000D02*
X109190000Y-65450000D01*
X112120000Y-61030000D02*
X112120000Y-64450000D01*
X116910000Y-60450000D02*
X115690000Y-60450000D01*
X110410000Y-65450000D02*
X110410000Y-67650000D01*
X113980000Y-64450000D02*
X113980000Y-61030000D01*
%TO.C,D2*%
X100192500Y-90035000D02*
X104252500Y-90035000D01*
X100192500Y-87765000D02*
X100192500Y-90035000D01*
X104252500Y-87765000D02*
X100192500Y-87765000D01*
%TO.C,C2*%
X112536248Y-88165000D02*
X113058752Y-88165000D01*
X112536248Y-89635000D02*
X113058752Y-89635000D01*
%TO.C,C1*%
X110377500Y-77135000D02*
X114462500Y-77135000D01*
X114462500Y-75265000D02*
X110377500Y-75265000D01*
X110377500Y-75265000D02*
X110377500Y-77135000D01*
%TD*%
M02*
