%TF.GenerationSoftware,KiCad,Pcbnew,7.0.8*%
%TF.CreationDate,2023-10-16T16:24:13-07:00*%
%TF.ProjectId,KiCad_Lab2_ConnorRoane,4b694361-645f-44c6-9162-325f436f6e6e,rev?*%
%TF.SameCoordinates,Original*%
%TF.FileFunction,Copper,L1,Top*%
%TF.FilePolarity,Positive*%
%FSLAX46Y46*%
G04 Gerber Fmt 4.6, Leading zero omitted, Abs format (unit mm)*
G04 Created by KiCad (PCBNEW 7.0.8) date 2023-10-16 16:24:13*
%MOMM*%
%LPD*%
G01*
G04 APERTURE LIST*
G04 Aperture macros list*
%AMRoundRect*
0 Rectangle with rounded corners*
0 $1 Rounding radius*
0 $2 $3 $4 $5 $6 $7 $8 $9 X,Y pos of 4 corners*
0 Add a 4 corners polygon primitive as box body*
4,1,4,$2,$3,$4,$5,$6,$7,$8,$9,$2,$3,0*
0 Add four circle primitives for the rounded corners*
1,1,$1+$1,$2,$3*
1,1,$1+$1,$4,$5*
1,1,$1+$1,$6,$7*
1,1,$1+$1,$8,$9*
0 Add four rect primitives between the rounded corners*
20,1,$1+$1,$2,$3,$4,$5,0*
20,1,$1+$1,$4,$5,$6,$7,0*
20,1,$1+$1,$6,$7,$8,$9,0*
20,1,$1+$1,$8,$9,$2,$3,0*%
G04 Aperture macros list end*
%TA.AperFunction,ComponentPad*%
%ADD10C,6.000000*%
%TD*%
%TA.AperFunction,SMDPad,CuDef*%
%ADD11RoundRect,0.150000X-0.825000X-0.150000X0.825000X-0.150000X0.825000X0.150000X-0.825000X0.150000X0*%
%TD*%
%TA.AperFunction,SMDPad,CuDef*%
%ADD12R,2.290000X3.000000*%
%TD*%
%TA.AperFunction,SMDPad,CuDef*%
%ADD13RoundRect,0.250000X-0.350000X-0.450000X0.350000X-0.450000X0.350000X0.450000X-0.350000X0.450000X0*%
%TD*%
%TA.AperFunction,ComponentPad*%
%ADD14RoundRect,0.250000X-0.600000X-0.750000X0.600000X-0.750000X0.600000X0.750000X-0.600000X0.750000X0*%
%TD*%
%TA.AperFunction,ComponentPad*%
%ADD15O,1.700000X2.000000*%
%TD*%
%TA.AperFunction,SMDPad,CuDef*%
%ADD16RoundRect,0.250001X-0.462499X-0.624999X0.462499X-0.624999X0.462499X0.624999X-0.462499X0.624999X0*%
%TD*%
%TA.AperFunction,SMDPad,CuDef*%
%ADD17RoundRect,0.250000X-0.337500X-0.475000X0.337500X-0.475000X0.337500X0.475000X-0.337500X0.475000X0*%
%TD*%
%TA.AperFunction,SMDPad,CuDef*%
%ADD18RoundRect,0.250000X-0.537500X-0.425000X0.537500X-0.425000X0.537500X0.425000X-0.537500X0.425000X0*%
%TD*%
%TA.AperFunction,ViaPad*%
%ADD19C,0.800000*%
%TD*%
%TA.AperFunction,Conductor*%
%ADD20C,0.250000*%
%TD*%
%TA.AperFunction,Conductor*%
%ADD21C,0.254000*%
%TD*%
%TA.AperFunction,Conductor*%
%ADD22C,0.508000*%
%TD*%
G04 APERTURE END LIST*
D10*
%TO.P,REF\u002A\u002A,1*%
%TO.N,N/C*%
X88900000Y-88900000D03*
%TD*%
D11*
%TO.P,U1,1,GND*%
%TO.N,GND*%
X100552500Y-74355000D03*
%TO.P,U1,2,TR*%
%TO.N,/pin_2*%
X100552500Y-75625000D03*
%TO.P,U1,3,Q*%
%TO.N,/pin_3*%
X100552500Y-76895000D03*
%TO.P,U1,4,R*%
%TO.N,+9V*%
X100552500Y-78165000D03*
%TO.P,U1,5,CV*%
%TO.N,Net-(U1-CV)*%
X105502500Y-78165000D03*
%TO.P,U1,6,THR*%
%TO.N,/pin_2*%
X105502500Y-76895000D03*
%TO.P,U1,7,DIS*%
%TO.N,/pin_7*%
X105502500Y-75625000D03*
%TO.P,U1,8,VCC*%
%TO.N,+9V*%
X105502500Y-74355000D03*
D12*
%TO.P,U1,9*%
%TO.N,N/C*%
X103027500Y-76260000D03*
%TD*%
D13*
%TO.P,R4,1*%
%TO.N,/pin_3*%
X90440000Y-81280000D03*
%TO.P,R4,2*%
%TO.N,Net-(D2-A)*%
X92440000Y-81280000D03*
%TD*%
%TO.P,R3,1*%
%TO.N,Net-(D1-K)*%
X90440000Y-73660000D03*
%TO.P,R3,2*%
%TO.N,/pin_3*%
X92440000Y-73660000D03*
%TD*%
%TO.P,R2,2*%
%TO.N,/pin_2*%
X94980000Y-66040000D03*
%TO.P,R2,1*%
%TO.N,/pin_7*%
X92980000Y-66040000D03*
%TD*%
%TO.P,R1,1*%
%TO.N,+9V*%
X103140000Y-66040000D03*
%TO.P,R1,2*%
%TO.N,/pin_7*%
X105140000Y-66040000D03*
%TD*%
D14*
%TO.P,J1,1,Pin_1*%
%TO.N,+9V*%
X111800000Y-66040000D03*
D15*
%TO.P,J1,2,Pin_2*%
%TO.N,GND*%
X114300000Y-66040000D03*
%TD*%
D16*
%TO.P,D2,1,K*%
%TO.N,GND*%
X101165000Y-88900000D03*
%TO.P,D2,2,A*%
%TO.N,Net-(D2-A)*%
X104140000Y-88900000D03*
%TD*%
D17*
%TO.P,C2,1*%
%TO.N,Net-(U1-CV)*%
X111760000Y-88900000D03*
%TO.P,C2,2*%
%TO.N,GND*%
X113835000Y-88900000D03*
%TD*%
D18*
%TO.P,C1,2*%
%TO.N,GND*%
X114300000Y-76200000D03*
%TO.P,C1,1*%
%TO.N,/pin_2*%
X111425000Y-76200000D03*
%TD*%
D19*
%TO.N,/pin_2*%
X99060000Y-68580000D03*
%TO.N,GND*%
X96520000Y-58420000D03*
X96520000Y-63500000D03*
%TO.N,/pin_2*%
X109220000Y-78740000D03*
%TO.N,+9V*%
X101600000Y-81280000D03*
X99060000Y-66040000D03*
X109220000Y-66040000D03*
%TD*%
D20*
%TO.N,/pin_2*%
X99060000Y-71120000D02*
X99060000Y-68580000D01*
X96921918Y-73258082D02*
X99060000Y-71120000D01*
X96921918Y-73660000D02*
X96921918Y-73258082D01*
X96921918Y-73660000D02*
X96720959Y-73459041D01*
X109220000Y-78740000D02*
X107375000Y-76895000D01*
D21*
X96720959Y-73459041D02*
X98886918Y-75625000D01*
X94980000Y-71718082D02*
X96720959Y-73459041D01*
D20*
%TO.N,+9V*%
X99060000Y-66040000D02*
X103140000Y-66040000D01*
D22*
X100552500Y-80232500D02*
X101600000Y-81280000D01*
X100552500Y-78165000D02*
X100552500Y-80232500D01*
D20*
X111800000Y-66040000D02*
X109220000Y-66040000D01*
D22*
X103140000Y-71992500D02*
X105502500Y-74355000D01*
X103140000Y-66040000D02*
X103140000Y-71992500D01*
D20*
%TO.N,/pin_2*%
X105502500Y-76895000D02*
X107375000Y-76895000D01*
D21*
%TO.N,/pin_7*%
X105140000Y-62500000D02*
X105140000Y-66040000D01*
X106680000Y-60960000D02*
X105140000Y-62500000D01*
X88900000Y-63500000D02*
X91440000Y-60960000D01*
X88900000Y-66040000D02*
X88900000Y-63500000D01*
X91440000Y-60960000D02*
X106680000Y-60960000D01*
X92980000Y-66040000D02*
X88900000Y-66040000D01*
%TO.N,Net-(U1-CV)*%
X111760000Y-84422500D02*
X111760000Y-88900000D01*
X105502500Y-78165000D02*
X111760000Y-84422500D01*
%TO.N,Net-(D2-A)*%
X96520000Y-81280000D02*
X104140000Y-88900000D01*
X92440000Y-81280000D02*
X96520000Y-81280000D01*
D20*
%TO.N,/pin_7*%
X106477500Y-75625000D02*
X105502500Y-75625000D01*
X109220000Y-72882500D02*
X106477500Y-75625000D01*
X106802500Y-68702500D02*
X109220000Y-71120000D01*
X109220000Y-71120000D02*
X109220000Y-72882500D01*
X106802500Y-67702500D02*
X106802500Y-68702500D01*
X105140000Y-66040000D02*
X106802500Y-67702500D01*
D21*
%TO.N,/pin_2*%
X98886918Y-75625000D02*
X100552500Y-75625000D01*
X94980000Y-66040000D02*
X94980000Y-71718082D01*
X110730000Y-76895000D02*
X105502500Y-76895000D01*
X111425000Y-76200000D02*
X110730000Y-76895000D01*
%TO.N,/pin_3*%
X94825000Y-76895000D02*
X95675000Y-76895000D01*
X90440000Y-81280000D02*
X94825000Y-76895000D01*
X95675000Y-76895000D02*
X100552500Y-76895000D01*
X92440000Y-73660000D02*
X95675000Y-76895000D01*
D20*
%TO.N,/pin_7*%
X105787500Y-75340000D02*
X105502500Y-75625000D01*
X106680000Y-75340000D02*
X105787500Y-75340000D01*
X105680000Y-65500000D02*
X105140000Y-66040000D01*
%TO.N,/pin_2*%
X105502500Y-76895000D02*
X106477500Y-76895000D01*
%TD*%
%TA.AperFunction,Conductor*%
%TO.N,GND*%
G36*
X104932757Y-61607185D02*
G01*
X104978512Y-61659989D01*
X104988456Y-61729147D01*
X104959431Y-61792703D01*
X104953399Y-61799181D01*
X104754953Y-61997626D01*
X104742669Y-62007469D01*
X104742849Y-62007687D01*
X104736838Y-62012659D01*
X104689322Y-62063258D01*
X104668375Y-62084205D01*
X104664106Y-62089709D01*
X104660315Y-62094147D01*
X104628308Y-62128230D01*
X104628305Y-62128234D01*
X104618606Y-62145877D01*
X104607928Y-62162133D01*
X104595594Y-62178034D01*
X104595589Y-62178042D01*
X104577025Y-62220943D01*
X104574454Y-62226191D01*
X104551927Y-62267167D01*
X104546920Y-62286668D01*
X104540621Y-62305064D01*
X104533893Y-62320612D01*
X104532625Y-62323544D01*
X104532624Y-62323546D01*
X104525312Y-62369716D01*
X104524127Y-62375438D01*
X104512500Y-62420723D01*
X104512500Y-62440858D01*
X104510973Y-62460257D01*
X104507825Y-62480131D01*
X104512225Y-62526677D01*
X104512500Y-62532515D01*
X104512500Y-64810175D01*
X104492815Y-64877214D01*
X104453597Y-64915714D01*
X104321342Y-64997289D01*
X104227681Y-65090951D01*
X104166358Y-65124436D01*
X104096666Y-65119452D01*
X104052319Y-65090951D01*
X103958657Y-64997289D01*
X103958656Y-64997288D01*
X103809334Y-64905186D01*
X103642797Y-64850001D01*
X103642795Y-64850000D01*
X103540010Y-64839500D01*
X102739998Y-64839500D01*
X102739980Y-64839501D01*
X102637203Y-64850000D01*
X102637200Y-64850001D01*
X102470668Y-64905185D01*
X102470663Y-64905187D01*
X102321342Y-64997289D01*
X102197289Y-65121342D01*
X102105187Y-65270663D01*
X102105186Y-65270666D01*
X102085689Y-65329505D01*
X102045916Y-65386949D01*
X101981400Y-65413772D01*
X101967983Y-65414500D01*
X99763748Y-65414500D01*
X99696709Y-65394815D01*
X99671600Y-65373474D01*
X99665873Y-65367114D01*
X99665869Y-65367110D01*
X99512734Y-65255851D01*
X99512729Y-65255848D01*
X99339807Y-65178857D01*
X99339802Y-65178855D01*
X99194001Y-65147865D01*
X99154646Y-65139500D01*
X98965354Y-65139500D01*
X98932897Y-65146398D01*
X98780197Y-65178855D01*
X98780192Y-65178857D01*
X98607270Y-65255848D01*
X98607265Y-65255851D01*
X98454129Y-65367111D01*
X98327466Y-65507785D01*
X98232821Y-65671715D01*
X98232818Y-65671722D01*
X98189378Y-65805419D01*
X98174326Y-65851744D01*
X98154540Y-66040000D01*
X98174326Y-66228256D01*
X98174327Y-66228259D01*
X98232818Y-66408277D01*
X98232821Y-66408284D01*
X98327467Y-66572216D01*
X98416627Y-66671238D01*
X98454129Y-66712888D01*
X98607265Y-66824148D01*
X98607270Y-66824151D01*
X98780192Y-66901142D01*
X98780197Y-66901144D01*
X98965354Y-66940500D01*
X98965355Y-66940500D01*
X99154644Y-66940500D01*
X99154646Y-66940500D01*
X99339803Y-66901144D01*
X99512730Y-66824151D01*
X99665871Y-66712888D01*
X99668788Y-66709647D01*
X99671600Y-66706526D01*
X99731087Y-66669879D01*
X99763748Y-66665500D01*
X101967983Y-66665500D01*
X102035022Y-66685185D01*
X102080777Y-66737989D01*
X102085686Y-66750489D01*
X102105186Y-66809334D01*
X102197288Y-66958656D01*
X102321344Y-67082712D01*
X102326591Y-67085948D01*
X102373318Y-67137892D01*
X102385500Y-67191490D01*
X102385500Y-71928500D01*
X102384191Y-71946469D01*
X102380684Y-71970408D01*
X102385264Y-72022741D01*
X102385500Y-72028148D01*
X102385500Y-72036446D01*
X102389325Y-72069174D01*
X102396056Y-72146110D01*
X102397516Y-72153177D01*
X102397464Y-72153187D01*
X102399123Y-72160667D01*
X102399174Y-72160655D01*
X102400839Y-72167680D01*
X102427247Y-72240240D01*
X102451535Y-72313534D01*
X102454586Y-72320075D01*
X102454536Y-72320098D01*
X102457876Y-72326997D01*
X102457925Y-72326973D01*
X102461165Y-72333425D01*
X102503599Y-72397944D01*
X102544131Y-72463656D01*
X102548611Y-72469322D01*
X102548569Y-72469355D01*
X102553401Y-72475286D01*
X102553443Y-72475252D01*
X102558081Y-72480780D01*
X102558085Y-72480785D01*
X102586166Y-72507278D01*
X102614247Y-72533772D01*
X104012492Y-73932016D01*
X104045977Y-73993339D01*
X104043888Y-74054291D01*
X104029901Y-74102432D01*
X104029901Y-74102433D01*
X104027000Y-74139300D01*
X104026959Y-74140357D01*
X104004664Y-74206574D01*
X103950108Y-74250225D01*
X103903054Y-74259500D01*
X102151444Y-74259500D01*
X102084405Y-74239815D01*
X102038650Y-74187011D01*
X102027539Y-74140358D01*
X102027500Y-74139353D01*
X102024600Y-74102511D01*
X102024599Y-74102504D01*
X101978783Y-73944806D01*
X101978782Y-73944803D01*
X101895185Y-73803447D01*
X101895178Y-73803438D01*
X101779061Y-73687321D01*
X101779052Y-73687314D01*
X101637696Y-73603717D01*
X101637693Y-73603716D01*
X101479995Y-73557900D01*
X101479989Y-73557899D01*
X101443144Y-73555000D01*
X100802500Y-73555000D01*
X100802500Y-74481000D01*
X100782815Y-74548039D01*
X100730011Y-74593794D01*
X100678500Y-74605000D01*
X99080205Y-74605000D01*
X99080204Y-74605001D01*
X99080400Y-74607494D01*
X99081282Y-74612323D01*
X99073962Y-74681808D01*
X99030238Y-74736306D01*
X98963991Y-74758512D01*
X98896255Y-74741378D01*
X98871619Y-74722282D01*
X98254335Y-74104998D01*
X99080204Y-74104998D01*
X99080205Y-74105000D01*
X100302500Y-74105000D01*
X100302500Y-73555000D01*
X99661856Y-73555000D01*
X99625010Y-73557899D01*
X99625004Y-73557900D01*
X99467306Y-73603716D01*
X99467303Y-73603717D01*
X99325947Y-73687314D01*
X99325938Y-73687321D01*
X99209821Y-73803438D01*
X99209814Y-73803447D01*
X99126218Y-73944801D01*
X99080399Y-74102513D01*
X99080204Y-74104998D01*
X98254335Y-74104998D01*
X97694644Y-73545307D01*
X97661159Y-73483984D01*
X97666143Y-73414292D01*
X97694644Y-73369945D01*
X98550733Y-72513856D01*
X99443786Y-71620802D01*
X99456048Y-71610980D01*
X99455865Y-71610759D01*
X99461867Y-71605792D01*
X99461877Y-71605786D01*
X99509241Y-71555348D01*
X99530120Y-71534470D01*
X99534373Y-71528986D01*
X99538150Y-71524563D01*
X99570062Y-71490582D01*
X99579714Y-71473023D01*
X99590389Y-71456772D01*
X99602674Y-71440936D01*
X99621186Y-71398152D01*
X99623742Y-71392935D01*
X99646197Y-71352092D01*
X99651180Y-71332680D01*
X99657477Y-71314291D01*
X99665438Y-71295895D01*
X99672729Y-71249853D01*
X99673908Y-71244162D01*
X99685500Y-71199019D01*
X99685500Y-71178983D01*
X99687027Y-71159582D01*
X99690160Y-71139804D01*
X99685775Y-71093415D01*
X99685500Y-71087577D01*
X99685500Y-69278687D01*
X99705185Y-69211648D01*
X99717350Y-69195715D01*
X99735891Y-69175122D01*
X99792533Y-69112216D01*
X99887179Y-68948284D01*
X99945674Y-68768256D01*
X99965460Y-68580000D01*
X99945674Y-68391744D01*
X99887179Y-68211716D01*
X99792533Y-68047784D01*
X99665871Y-67907112D01*
X99665870Y-67907111D01*
X99512734Y-67795851D01*
X99512729Y-67795848D01*
X99339807Y-67718857D01*
X99339802Y-67718855D01*
X99194001Y-67687865D01*
X99154646Y-67679500D01*
X98965354Y-67679500D01*
X98932897Y-67686398D01*
X98780197Y-67718855D01*
X98780192Y-67718857D01*
X98607270Y-67795848D01*
X98607265Y-67795851D01*
X98454129Y-67907111D01*
X98327466Y-68047785D01*
X98232821Y-68211715D01*
X98232818Y-68211722D01*
X98174327Y-68391740D01*
X98174326Y-68391744D01*
X98154540Y-68580000D01*
X98174326Y-68768256D01*
X98174327Y-68768259D01*
X98232818Y-68948277D01*
X98232821Y-68948284D01*
X98327467Y-69112216D01*
X98347159Y-69134086D01*
X98402650Y-69195715D01*
X98432880Y-69258706D01*
X98434500Y-69278687D01*
X98434500Y-70809547D01*
X98414815Y-70876586D01*
X98398181Y-70897228D01*
X96810054Y-72485355D01*
X96748731Y-72518840D01*
X96679039Y-72513856D01*
X96634692Y-72485355D01*
X95643819Y-71494482D01*
X95610334Y-71433159D01*
X95607500Y-71406801D01*
X95607500Y-67269824D01*
X95627185Y-67202785D01*
X95666404Y-67164285D01*
X95709194Y-67137892D01*
X95798656Y-67082712D01*
X95922712Y-66958656D01*
X96014814Y-66809334D01*
X96069999Y-66642797D01*
X96080500Y-66540009D01*
X96080499Y-65539992D01*
X96069999Y-65437203D01*
X96014814Y-65270666D01*
X95922712Y-65121344D01*
X95798656Y-64997288D01*
X95649334Y-64905186D01*
X95482797Y-64850001D01*
X95482795Y-64850000D01*
X95380010Y-64839500D01*
X94579998Y-64839500D01*
X94579980Y-64839501D01*
X94477203Y-64850000D01*
X94477200Y-64850001D01*
X94310668Y-64905185D01*
X94310663Y-64905187D01*
X94161342Y-64997289D01*
X94067681Y-65090951D01*
X94006358Y-65124436D01*
X93936666Y-65119452D01*
X93892319Y-65090951D01*
X93798657Y-64997289D01*
X93798656Y-64997288D01*
X93649334Y-64905186D01*
X93482797Y-64850001D01*
X93482795Y-64850000D01*
X93380010Y-64839500D01*
X92579998Y-64839500D01*
X92579980Y-64839501D01*
X92477203Y-64850000D01*
X92477200Y-64850001D01*
X92310668Y-64905185D01*
X92310663Y-64905187D01*
X92161342Y-64997289D01*
X92037289Y-65121342D01*
X91945187Y-65270663D01*
X91945185Y-65270668D01*
X91926352Y-65327504D01*
X91886579Y-65384949D01*
X91822063Y-65411772D01*
X91808646Y-65412500D01*
X89651500Y-65412500D01*
X89584461Y-65392815D01*
X89538706Y-65340011D01*
X89527500Y-65288500D01*
X89527500Y-63811281D01*
X89547185Y-63744242D01*
X89563819Y-63723600D01*
X91663600Y-61623819D01*
X91724923Y-61590334D01*
X91751281Y-61587500D01*
X104865718Y-61587500D01*
X104932757Y-61607185D01*
G37*
%TD.AperFunction*%
%TA.AperFunction,Conductor*%
G36*
X126942539Y-55900185D02*
G01*
X126988294Y-55952989D01*
X126999500Y-56004500D01*
X126999500Y-93855500D01*
X126979815Y-93922539D01*
X126927011Y-93968294D01*
X126875500Y-93979500D01*
X83944500Y-93979500D01*
X83877461Y-93959815D01*
X83831706Y-93907011D01*
X83820500Y-93855500D01*
X83820500Y-88900000D01*
X85394696Y-88900000D01*
X85413898Y-89266405D01*
X85439020Y-89425019D01*
X85471295Y-89628794D01*
X85512452Y-89782395D01*
X85566260Y-89983206D01*
X85697746Y-90325739D01*
X85864320Y-90652656D01*
X86064147Y-90960364D01*
X86064149Y-90960366D01*
X86295051Y-91245506D01*
X86554494Y-91504949D01*
X86554498Y-91504952D01*
X86839635Y-91735852D01*
X87147343Y-91935679D01*
X87147348Y-91935682D01*
X87474264Y-92102255D01*
X87816801Y-92233742D01*
X88171206Y-92328705D01*
X88533596Y-92386102D01*
X88879734Y-92404241D01*
X88899999Y-92405304D01*
X88900000Y-92405304D01*
X88900001Y-92405304D01*
X88919203Y-92404297D01*
X89266404Y-92386102D01*
X89628794Y-92328705D01*
X89983199Y-92233742D01*
X90325736Y-92102255D01*
X90652652Y-91935682D01*
X90960366Y-91735851D01*
X91245506Y-91504949D01*
X91504949Y-91245506D01*
X91735851Y-90960366D01*
X91935682Y-90652652D01*
X92102255Y-90325736D01*
X92233742Y-89983199D01*
X92328705Y-89628794D01*
X92386102Y-89266404D01*
X92392202Y-89150000D01*
X99952500Y-89150000D01*
X99952500Y-89574985D01*
X99962993Y-89677689D01*
X99962994Y-89677696D01*
X100018141Y-89844118D01*
X100018143Y-89844123D01*
X100110184Y-89993344D01*
X100234155Y-90117315D01*
X100383376Y-90209356D01*
X100383381Y-90209358D01*
X100549803Y-90264505D01*
X100549810Y-90264506D01*
X100652514Y-90274999D01*
X100652527Y-90275000D01*
X100915000Y-90275000D01*
X100915000Y-89150000D01*
X101415000Y-89150000D01*
X101415000Y-90275000D01*
X101677473Y-90275000D01*
X101677485Y-90274999D01*
X101780189Y-90264506D01*
X101780196Y-90264505D01*
X101946618Y-90209358D01*
X101946623Y-90209356D01*
X102095844Y-90117315D01*
X102219815Y-89993344D01*
X102311856Y-89844123D01*
X102311858Y-89844118D01*
X102367005Y-89677696D01*
X102367006Y-89677689D01*
X102377499Y-89574985D01*
X102377500Y-89574972D01*
X102377500Y-89150000D01*
X101415000Y-89150000D01*
X100915000Y-89150000D01*
X99952500Y-89150000D01*
X92392202Y-89150000D01*
X92405304Y-88900000D01*
X92392202Y-88650000D01*
X99952500Y-88650000D01*
X100915000Y-88650000D01*
X100915000Y-87525000D01*
X100652514Y-87525000D01*
X100549810Y-87535493D01*
X100549803Y-87535494D01*
X100383381Y-87590641D01*
X100383376Y-87590643D01*
X100234155Y-87682684D01*
X100110184Y-87806655D01*
X100018143Y-87955876D01*
X100018141Y-87955881D01*
X99962994Y-88122303D01*
X99962993Y-88122310D01*
X99952500Y-88225014D01*
X99952500Y-88650000D01*
X92392202Y-88650000D01*
X92386102Y-88533596D01*
X92328705Y-88171206D01*
X92233742Y-87816801D01*
X92229729Y-87806348D01*
X92183338Y-87685493D01*
X92102255Y-87474264D01*
X91935682Y-87147348D01*
X91735851Y-86839634D01*
X91504949Y-86554494D01*
X91245506Y-86295051D01*
X90960366Y-86064149D01*
X90960364Y-86064147D01*
X90652656Y-85864320D01*
X90325739Y-85697746D01*
X89983206Y-85566260D01*
X89983199Y-85566258D01*
X89628794Y-85471295D01*
X89628790Y-85471294D01*
X89628789Y-85471294D01*
X89266405Y-85413898D01*
X88900001Y-85394696D01*
X88899999Y-85394696D01*
X88533594Y-85413898D01*
X88171211Y-85471294D01*
X88171209Y-85471294D01*
X87816793Y-85566260D01*
X87474260Y-85697746D01*
X87147343Y-85864320D01*
X86839635Y-86064147D01*
X86554498Y-86295047D01*
X86554490Y-86295054D01*
X86295054Y-86554490D01*
X86295047Y-86554498D01*
X86064147Y-86839635D01*
X85864320Y-87147343D01*
X85697746Y-87474260D01*
X85566260Y-87816793D01*
X85471294Y-88171209D01*
X85471294Y-88171211D01*
X85413898Y-88533594D01*
X85394696Y-88899999D01*
X85394696Y-88900000D01*
X83820500Y-88900000D01*
X83820500Y-63480131D01*
X88267825Y-63480131D01*
X88272225Y-63526677D01*
X88272500Y-63532515D01*
X88272500Y-65968961D01*
X88270304Y-65992196D01*
X88268761Y-66000283D01*
X88268761Y-66000286D01*
X88272378Y-66057786D01*
X88272500Y-66061659D01*
X88272500Y-66079484D01*
X88274733Y-66097159D01*
X88275099Y-66101034D01*
X88278716Y-66158518D01*
X88281261Y-66166350D01*
X88286351Y-66189119D01*
X88287384Y-66197293D01*
X88287385Y-66197297D01*
X88287386Y-66197299D01*
X88308592Y-66250862D01*
X88309911Y-66254525D01*
X88327709Y-66309300D01*
X88332121Y-66316252D01*
X88342713Y-66337041D01*
X88345747Y-66344704D01*
X88379608Y-66391310D01*
X88381798Y-66394531D01*
X88412659Y-66443161D01*
X88418661Y-66448797D01*
X88434098Y-66466307D01*
X88438937Y-66472968D01*
X88483317Y-66509682D01*
X88486238Y-66512258D01*
X88515781Y-66540000D01*
X88528233Y-66551693D01*
X88535451Y-66555661D01*
X88554758Y-66568782D01*
X88561094Y-66574024D01*
X88561095Y-66574024D01*
X88561097Y-66574026D01*
X88612361Y-66598149D01*
X88613203Y-66598545D01*
X88616674Y-66600314D01*
X88635495Y-66610660D01*
X88667166Y-66628072D01*
X88675137Y-66630118D01*
X88697105Y-66638027D01*
X88704551Y-66641531D01*
X88761147Y-66652326D01*
X88764892Y-66653163D01*
X88820728Y-66667500D01*
X88828962Y-66667500D01*
X88852198Y-66669697D01*
X88860277Y-66671238D01*
X88860281Y-66671238D01*
X88860286Y-66671239D01*
X88917787Y-66667621D01*
X88921660Y-66667500D01*
X91808646Y-66667500D01*
X91875685Y-66687185D01*
X91921440Y-66739989D01*
X91926350Y-66752492D01*
X91945186Y-66809334D01*
X92037288Y-66958656D01*
X92161344Y-67082712D01*
X92310666Y-67174814D01*
X92477203Y-67229999D01*
X92579991Y-67240500D01*
X93380008Y-67240499D01*
X93380016Y-67240498D01*
X93380019Y-67240498D01*
X93436302Y-67234748D01*
X93482797Y-67229999D01*
X93649334Y-67174814D01*
X93798656Y-67082712D01*
X93892319Y-66989049D01*
X93953642Y-66955564D01*
X94023334Y-66960548D01*
X94067681Y-66989049D01*
X94161344Y-67082712D01*
X94293596Y-67164285D01*
X94340321Y-67216233D01*
X94352500Y-67269824D01*
X94352500Y-71635114D01*
X94350772Y-71650763D01*
X94351054Y-71650790D01*
X94350319Y-71658557D01*
X94352500Y-71727941D01*
X94352500Y-71757559D01*
X94353371Y-71764462D01*
X94353829Y-71770281D01*
X94355298Y-71817024D01*
X94360916Y-71836357D01*
X94364862Y-71855411D01*
X94367383Y-71875369D01*
X94367386Y-71875381D01*
X94384595Y-71918847D01*
X94386487Y-71924375D01*
X94399530Y-71969269D01*
X94399530Y-71969270D01*
X94409777Y-71986597D01*
X94418335Y-72004067D01*
X94425745Y-72022783D01*
X94453229Y-72060611D01*
X94456437Y-72065495D01*
X94480234Y-72105734D01*
X94480240Y-72105742D01*
X94494469Y-72119970D01*
X94507109Y-72134769D01*
X94518934Y-72151046D01*
X94518936Y-72151047D01*
X94518937Y-72151049D01*
X94554957Y-72180847D01*
X94559268Y-72184769D01*
X95529916Y-73155417D01*
X96445427Y-74070928D01*
X96458063Y-74085723D01*
X96462324Y-74091587D01*
X96478538Y-74105000D01*
X96481850Y-74107740D01*
X96486161Y-74111662D01*
X97464684Y-75090185D01*
X98384542Y-76010043D01*
X98394389Y-76022333D01*
X98394607Y-76022154D01*
X98399575Y-76028160D01*
X98426142Y-76053108D01*
X98461537Y-76113350D01*
X98458743Y-76183163D01*
X98418649Y-76240384D01*
X98353984Y-76266845D01*
X98341258Y-76267500D01*
X95986281Y-76267500D01*
X95919242Y-76247815D01*
X95898600Y-76231181D01*
X93576818Y-73909399D01*
X93543333Y-73848076D01*
X93540499Y-73821718D01*
X93540499Y-73159998D01*
X93540498Y-73159981D01*
X93529999Y-73057203D01*
X93529998Y-73057200D01*
X93514186Y-73009482D01*
X93474814Y-72890666D01*
X93382712Y-72741344D01*
X93258656Y-72617288D01*
X93109334Y-72525186D01*
X92942797Y-72470001D01*
X92942795Y-72470000D01*
X92840010Y-72459500D01*
X92039998Y-72459500D01*
X92039980Y-72459501D01*
X91937203Y-72470000D01*
X91937200Y-72470001D01*
X91770668Y-72525185D01*
X91770663Y-72525187D01*
X91621342Y-72617289D01*
X91527681Y-72710951D01*
X91466358Y-72744436D01*
X91396666Y-72739452D01*
X91352319Y-72710951D01*
X91258657Y-72617289D01*
X91258656Y-72617288D01*
X91109334Y-72525186D01*
X90942797Y-72470001D01*
X90942795Y-72470000D01*
X90840010Y-72459500D01*
X90039998Y-72459500D01*
X90039980Y-72459501D01*
X89937203Y-72470000D01*
X89937200Y-72470001D01*
X89770668Y-72525185D01*
X89770663Y-72525187D01*
X89621342Y-72617289D01*
X89497289Y-72741342D01*
X89405187Y-72890663D01*
X89405185Y-72890668D01*
X89394776Y-72922082D01*
X89350001Y-73057203D01*
X89350001Y-73057204D01*
X89350000Y-73057204D01*
X89339500Y-73159983D01*
X89339500Y-74160001D01*
X89339501Y-74160019D01*
X89350000Y-74262796D01*
X89350001Y-74262799D01*
X89351032Y-74265909D01*
X89405186Y-74429334D01*
X89497288Y-74578656D01*
X89621344Y-74702712D01*
X89770666Y-74794814D01*
X89937203Y-74849999D01*
X90039991Y-74860500D01*
X90840008Y-74860499D01*
X90840016Y-74860498D01*
X90840019Y-74860498D01*
X90896302Y-74854748D01*
X90942797Y-74849999D01*
X91109334Y-74794814D01*
X91258656Y-74702712D01*
X91352319Y-74609049D01*
X91413642Y-74575564D01*
X91483334Y-74580548D01*
X91527681Y-74609049D01*
X91621344Y-74702712D01*
X91770666Y-74794814D01*
X91937203Y-74849999D01*
X92039991Y-74860500D01*
X92701718Y-74860499D01*
X92768757Y-74880183D01*
X92789399Y-74896818D01*
X94274899Y-76382318D01*
X94308384Y-76443641D01*
X94303400Y-76513333D01*
X94274899Y-76557680D01*
X90789398Y-80043181D01*
X90728075Y-80076666D01*
X90701717Y-80079500D01*
X90039998Y-80079500D01*
X90039980Y-80079501D01*
X89937203Y-80090000D01*
X89937200Y-80090001D01*
X89770668Y-80145185D01*
X89770663Y-80145187D01*
X89621342Y-80237289D01*
X89497289Y-80361342D01*
X89405187Y-80510663D01*
X89405186Y-80510666D01*
X89350001Y-80677203D01*
X89350001Y-80677204D01*
X89350000Y-80677204D01*
X89339500Y-80779983D01*
X89339500Y-81780001D01*
X89339501Y-81780019D01*
X89350000Y-81882796D01*
X89350001Y-81882799D01*
X89405185Y-82049331D01*
X89405186Y-82049334D01*
X89497288Y-82198656D01*
X89621344Y-82322712D01*
X89770666Y-82414814D01*
X89937203Y-82469999D01*
X90039991Y-82480500D01*
X90840008Y-82480499D01*
X90840016Y-82480498D01*
X90840019Y-82480498D01*
X90896302Y-82474748D01*
X90942797Y-82469999D01*
X91109334Y-82414814D01*
X91258656Y-82322712D01*
X91352319Y-82229049D01*
X91413642Y-82195564D01*
X91483334Y-82200548D01*
X91527681Y-82229049D01*
X91621344Y-82322712D01*
X91770666Y-82414814D01*
X91937203Y-82469999D01*
X92039991Y-82480500D01*
X92840008Y-82480499D01*
X92840016Y-82480498D01*
X92840019Y-82480498D01*
X92896302Y-82474748D01*
X92942797Y-82469999D01*
X93109334Y-82414814D01*
X93258656Y-82322712D01*
X93382712Y-82198656D01*
X93474814Y-82049334D01*
X93493648Y-81992495D01*
X93533421Y-81935051D01*
X93597937Y-81908228D01*
X93611354Y-81907500D01*
X96208719Y-81907500D01*
X96275758Y-81927185D01*
X96296400Y-81943819D01*
X101665900Y-87313319D01*
X101699385Y-87374642D01*
X101694401Y-87444334D01*
X101652529Y-87500267D01*
X101587065Y-87524684D01*
X101578219Y-87525000D01*
X101415000Y-87525000D01*
X101415000Y-88650000D01*
X102377500Y-88650000D01*
X102377500Y-88324281D01*
X102397185Y-88257242D01*
X102449989Y-88211487D01*
X102519147Y-88201543D01*
X102582703Y-88230568D01*
X102589181Y-88236600D01*
X102890681Y-88538100D01*
X102924166Y-88599423D01*
X102927000Y-88625781D01*
X102927000Y-89575015D01*
X102937500Y-89677795D01*
X102937501Y-89677797D01*
X102965093Y-89761065D01*
X102992686Y-89844335D01*
X102992687Y-89844337D01*
X103084786Y-89993651D01*
X103084789Y-89993655D01*
X103208844Y-90117710D01*
X103208848Y-90117713D01*
X103358162Y-90209812D01*
X103358164Y-90209813D01*
X103358166Y-90209814D01*
X103524703Y-90264999D01*
X103627492Y-90275500D01*
X103627497Y-90275500D01*
X104652503Y-90275500D01*
X104652508Y-90275500D01*
X104755297Y-90264999D01*
X104921834Y-90209814D01*
X105071155Y-90117711D01*
X105195211Y-89993655D01*
X105287314Y-89844334D01*
X105342499Y-89677797D01*
X105353000Y-89575008D01*
X105353000Y-88224992D01*
X105342499Y-88122203D01*
X105287314Y-87955666D01*
X105201660Y-87816801D01*
X105195213Y-87806348D01*
X105195210Y-87806344D01*
X105071155Y-87682289D01*
X105071151Y-87682286D01*
X104921837Y-87590187D01*
X104921835Y-87590186D01*
X104838565Y-87562593D01*
X104755297Y-87535001D01*
X104755295Y-87535000D01*
X104652515Y-87524500D01*
X104652508Y-87524500D01*
X103703281Y-87524500D01*
X103636242Y-87504815D01*
X103615600Y-87488181D01*
X97022376Y-80894957D01*
X97012531Y-80882668D01*
X97012313Y-80882849D01*
X97007340Y-80876838D01*
X96956741Y-80829322D01*
X96946268Y-80818849D01*
X96935797Y-80808377D01*
X96930296Y-80804111D01*
X96925848Y-80800312D01*
X96891768Y-80768308D01*
X96891763Y-80768304D01*
X96874122Y-80758606D01*
X96857857Y-80747922D01*
X96857680Y-80747785D01*
X96841962Y-80735592D01*
X96826804Y-80729032D01*
X96799054Y-80717023D01*
X96793807Y-80714453D01*
X96752837Y-80691929D01*
X96752828Y-80691926D01*
X96733334Y-80686920D01*
X96714933Y-80680620D01*
X96696459Y-80672626D01*
X96696452Y-80672624D01*
X96650287Y-80665313D01*
X96644563Y-80664128D01*
X96599279Y-80652500D01*
X96599272Y-80652500D01*
X96579142Y-80652500D01*
X96559743Y-80650973D01*
X96539868Y-80647825D01*
X96539867Y-80647825D01*
X96493321Y-80652225D01*
X96487483Y-80652500D01*
X93611354Y-80652500D01*
X93544315Y-80632815D01*
X93498560Y-80580011D01*
X93493648Y-80567504D01*
X93491186Y-80560075D01*
X93474814Y-80510666D01*
X93382712Y-80361344D01*
X93258656Y-80237288D01*
X93109334Y-80145186D01*
X92942797Y-80090001D01*
X92942795Y-80090000D01*
X92840016Y-80079500D01*
X92840009Y-80079500D01*
X92827280Y-80079500D01*
X92760241Y-80059815D01*
X92714486Y-80007011D01*
X92704542Y-79937853D01*
X92733567Y-79874297D01*
X92739599Y-79867819D01*
X93847071Y-78760348D01*
X95048600Y-77558819D01*
X95109923Y-77525334D01*
X95136281Y-77522500D01*
X95595728Y-77522500D01*
X95615858Y-77522500D01*
X95635257Y-77524027D01*
X95655133Y-77527175D01*
X95697779Y-77523143D01*
X95701679Y-77522775D01*
X95707517Y-77522500D01*
X99045626Y-77522500D01*
X99112665Y-77542185D01*
X99158420Y-77594989D01*
X99168364Y-77664147D01*
X99152358Y-77709621D01*
X99125755Y-77754603D01*
X99125754Y-77754606D01*
X99079902Y-77912426D01*
X99079901Y-77912432D01*
X99077000Y-77949304D01*
X99077000Y-78380696D01*
X99079901Y-78417567D01*
X99079902Y-78417573D01*
X99125754Y-78575393D01*
X99125755Y-78575396D01*
X99209417Y-78716862D01*
X99209423Y-78716870D01*
X99325629Y-78833076D01*
X99325633Y-78833079D01*
X99325635Y-78833081D01*
X99467102Y-78916744D01*
X99506726Y-78928256D01*
X99624926Y-78962597D01*
X99624929Y-78962597D01*
X99624931Y-78962598D01*
X99637222Y-78963565D01*
X99661804Y-78965500D01*
X99661806Y-78965500D01*
X99674000Y-78965500D01*
X99741039Y-78985185D01*
X99786794Y-79037989D01*
X99798000Y-79089500D01*
X99798000Y-80168500D01*
X99796691Y-80186469D01*
X99793184Y-80210408D01*
X99797764Y-80262741D01*
X99798000Y-80268148D01*
X99798000Y-80276446D01*
X99801825Y-80309174D01*
X99808556Y-80386110D01*
X99810016Y-80393177D01*
X99809964Y-80393187D01*
X99811623Y-80400667D01*
X99811674Y-80400655D01*
X99813339Y-80407680D01*
X99839747Y-80480240D01*
X99864035Y-80553534D01*
X99867086Y-80560075D01*
X99867036Y-80560098D01*
X99870376Y-80566997D01*
X99870425Y-80566973D01*
X99873662Y-80573420D01*
X99873664Y-80573424D01*
X99895820Y-80607111D01*
X99916099Y-80637944D01*
X99956631Y-80703656D01*
X99961111Y-80709322D01*
X99961069Y-80709355D01*
X99965901Y-80715286D01*
X99965943Y-80715252D01*
X99970581Y-80720780D01*
X99970585Y-80720785D01*
X99986280Y-80735592D01*
X100026747Y-80773772D01*
X100689951Y-81436975D01*
X100720201Y-81486338D01*
X100772818Y-81648277D01*
X100772821Y-81648284D01*
X100867467Y-81812216D01*
X100985963Y-81943819D01*
X100994129Y-81952888D01*
X101147265Y-82064148D01*
X101147270Y-82064151D01*
X101320192Y-82141142D01*
X101320197Y-82141144D01*
X101505354Y-82180500D01*
X101505355Y-82180500D01*
X101694644Y-82180500D01*
X101694646Y-82180500D01*
X101879803Y-82141144D01*
X102052730Y-82064151D01*
X102205871Y-81952888D01*
X102332533Y-81812216D01*
X102427179Y-81648284D01*
X102485674Y-81468256D01*
X102505460Y-81280000D01*
X102485674Y-81091744D01*
X102427179Y-80911716D01*
X102332533Y-80747784D01*
X102205871Y-80607112D01*
X102159505Y-80573425D01*
X102052734Y-80495851D01*
X102052729Y-80495848D01*
X101879807Y-80418857D01*
X101879802Y-80418855D01*
X101821853Y-80406538D01*
X101760371Y-80373345D01*
X101759953Y-80372929D01*
X101343319Y-79956294D01*
X101309834Y-79894971D01*
X101307000Y-79868613D01*
X101307000Y-79089500D01*
X101326685Y-79022461D01*
X101379489Y-78976706D01*
X101431000Y-78965500D01*
X101443196Y-78965500D01*
X101461631Y-78964049D01*
X101480069Y-78962598D01*
X101480071Y-78962597D01*
X101480073Y-78962597D01*
X101521691Y-78950505D01*
X101637898Y-78916744D01*
X101779365Y-78833081D01*
X101895581Y-78716865D01*
X101979244Y-78575398D01*
X102025098Y-78417569D01*
X102028000Y-78380694D01*
X102028041Y-78379643D01*
X102050336Y-78313426D01*
X102104891Y-78269774D01*
X102151946Y-78260499D01*
X103903054Y-78260499D01*
X103970093Y-78280184D01*
X104015848Y-78332988D01*
X104026959Y-78379643D01*
X104027000Y-78380700D01*
X104029901Y-78417566D01*
X104029902Y-78417573D01*
X104075754Y-78575393D01*
X104075755Y-78575396D01*
X104159417Y-78716862D01*
X104159423Y-78716870D01*
X104275629Y-78833076D01*
X104275633Y-78833079D01*
X104275635Y-78833081D01*
X104417102Y-78916744D01*
X104456726Y-78928256D01*
X104574926Y-78962597D01*
X104574929Y-78962597D01*
X104574931Y-78962598D01*
X104587222Y-78963565D01*
X104611804Y-78965500D01*
X104611806Y-78965500D01*
X105364219Y-78965500D01*
X105431258Y-78985185D01*
X105451900Y-79001819D01*
X111096181Y-84646100D01*
X111129666Y-84707423D01*
X111132500Y-84733781D01*
X111132500Y-87652885D01*
X111112815Y-87719924D01*
X111073597Y-87758424D01*
X110953842Y-87832289D01*
X110829789Y-87956342D01*
X110737687Y-88105663D01*
X110737685Y-88105668D01*
X110715968Y-88171206D01*
X110682501Y-88272203D01*
X110682501Y-88272204D01*
X110682500Y-88272204D01*
X110672000Y-88374983D01*
X110672000Y-89425001D01*
X110672001Y-89425019D01*
X110682500Y-89527796D01*
X110682501Y-89527799D01*
X110732206Y-89677796D01*
X110737686Y-89694334D01*
X110829788Y-89843656D01*
X110953844Y-89967712D01*
X111103166Y-90059814D01*
X111269703Y-90114999D01*
X111372491Y-90125500D01*
X112147508Y-90125499D01*
X112147516Y-90125498D01*
X112147519Y-90125498D01*
X112223748Y-90117711D01*
X112250297Y-90114999D01*
X112416834Y-90059814D01*
X112566156Y-89967712D01*
X112690212Y-89843656D01*
X112692252Y-89840347D01*
X112694245Y-89838555D01*
X112694693Y-89837989D01*
X112694789Y-89838065D01*
X112744194Y-89793623D01*
X112813156Y-89782395D01*
X112877240Y-89810234D01*
X112903329Y-89840339D01*
X112905181Y-89843341D01*
X112905183Y-89843344D01*
X113029154Y-89967315D01*
X113178375Y-90059356D01*
X113178380Y-90059358D01*
X113344802Y-90114505D01*
X113344809Y-90114506D01*
X113447519Y-90124999D01*
X113584999Y-90124999D01*
X113585000Y-90124998D01*
X113585000Y-89150000D01*
X114085000Y-89150000D01*
X114085000Y-90124999D01*
X114222472Y-90124999D01*
X114222486Y-90124998D01*
X114325197Y-90114505D01*
X114491619Y-90059358D01*
X114491624Y-90059356D01*
X114640845Y-89967315D01*
X114764815Y-89843345D01*
X114856856Y-89694124D01*
X114856858Y-89694119D01*
X114912005Y-89527697D01*
X114912006Y-89527690D01*
X114922499Y-89424986D01*
X114922500Y-89424973D01*
X114922500Y-89150000D01*
X114085000Y-89150000D01*
X113585000Y-89150000D01*
X113585000Y-87675000D01*
X114085000Y-87675000D01*
X114085000Y-88650000D01*
X114922499Y-88650000D01*
X114922499Y-88375028D01*
X114922498Y-88375013D01*
X114912005Y-88272302D01*
X114856858Y-88105880D01*
X114856856Y-88105875D01*
X114764815Y-87956654D01*
X114640845Y-87832684D01*
X114491624Y-87740643D01*
X114491619Y-87740641D01*
X114325197Y-87685494D01*
X114325190Y-87685493D01*
X114222486Y-87675000D01*
X114085000Y-87675000D01*
X113585000Y-87675000D01*
X113447527Y-87675000D01*
X113447512Y-87675001D01*
X113344802Y-87685494D01*
X113178380Y-87740641D01*
X113178375Y-87740643D01*
X113029154Y-87832684D01*
X112905183Y-87956655D01*
X112905179Y-87956660D01*
X112903326Y-87959665D01*
X112901518Y-87961290D01*
X112900702Y-87962323D01*
X112900525Y-87962183D01*
X112851374Y-88006385D01*
X112782411Y-88017601D01*
X112718331Y-87989752D01*
X112692253Y-87959653D01*
X112692237Y-87959628D01*
X112690212Y-87956344D01*
X112566156Y-87832288D01*
X112446403Y-87758424D01*
X112399679Y-87706476D01*
X112387500Y-87652885D01*
X112387500Y-84505464D01*
X112389228Y-84489814D01*
X112388946Y-84489788D01*
X112389680Y-84482025D01*
X112387500Y-84412654D01*
X112387500Y-84383028D01*
X112387500Y-84383024D01*
X112386627Y-84376114D01*
X112386168Y-84370285D01*
X112384700Y-84323557D01*
X112379082Y-84304220D01*
X112375138Y-84285174D01*
X112372616Y-84265207D01*
X112355402Y-84221731D01*
X112353513Y-84216210D01*
X112340468Y-84171308D01*
X112330225Y-84153989D01*
X112321662Y-84136511D01*
X112314253Y-84117797D01*
X112314253Y-84117796D01*
X112286771Y-84079972D01*
X112283567Y-84075096D01*
X112259763Y-84034844D01*
X112259761Y-84034842D01*
X112259759Y-84034839D01*
X112245531Y-84020612D01*
X112232896Y-84005820D01*
X112221063Y-83989533D01*
X112221060Y-83989531D01*
X112221060Y-83989530D01*
X112221059Y-83989529D01*
X112185035Y-83959728D01*
X112180713Y-83955794D01*
X106949344Y-78724425D01*
X106915859Y-78663102D01*
X106920843Y-78593410D01*
X106927291Y-78579908D01*
X106929239Y-78575405D01*
X106929244Y-78575398D01*
X106975098Y-78417569D01*
X106978000Y-78380694D01*
X106978000Y-77949306D01*
X106975098Y-77912431D01*
X106965343Y-77878856D01*
X106929245Y-77754606D01*
X106929244Y-77754603D01*
X106929244Y-77754602D01*
X106902641Y-77709619D01*
X106885459Y-77641897D01*
X106907619Y-77575635D01*
X106962085Y-77531871D01*
X107009374Y-77522500D01*
X107066548Y-77522500D01*
X107133587Y-77542185D01*
X107154229Y-77558819D01*
X108281038Y-78685629D01*
X108314523Y-78746952D01*
X108316678Y-78760348D01*
X108324322Y-78833076D01*
X108334326Y-78928256D01*
X108334327Y-78928259D01*
X108392818Y-79108277D01*
X108392821Y-79108284D01*
X108487467Y-79272216D01*
X108614129Y-79412888D01*
X108767265Y-79524148D01*
X108767270Y-79524151D01*
X108940192Y-79601142D01*
X108940197Y-79601144D01*
X109125354Y-79640500D01*
X109125355Y-79640500D01*
X109314644Y-79640500D01*
X109314646Y-79640500D01*
X109499803Y-79601144D01*
X109672730Y-79524151D01*
X109825871Y-79412888D01*
X109952533Y-79272216D01*
X110047179Y-79108284D01*
X110105674Y-78928256D01*
X110125460Y-78740000D01*
X110105674Y-78551744D01*
X110047179Y-78371716D01*
X109952533Y-78207784D01*
X109825871Y-78067112D01*
X109825870Y-78067111D01*
X109672734Y-77955851D01*
X109672729Y-77955848D01*
X109499807Y-77878857D01*
X109499802Y-77878855D01*
X109354001Y-77847865D01*
X109314646Y-77839500D01*
X109314645Y-77839500D01*
X109255452Y-77839500D01*
X109188413Y-77819815D01*
X109167771Y-77803181D01*
X109098771Y-77734181D01*
X109065286Y-77672858D01*
X109070270Y-77603166D01*
X109112142Y-77547233D01*
X109177606Y-77522816D01*
X109186452Y-77522500D01*
X110647033Y-77522500D01*
X110662681Y-77524227D01*
X110662708Y-77523946D01*
X110670475Y-77524680D01*
X110670476Y-77524679D01*
X110670477Y-77524680D01*
X110739860Y-77522500D01*
X110769476Y-77522500D01*
X110776378Y-77521627D01*
X110782190Y-77521169D01*
X110828943Y-77519701D01*
X110848272Y-77514084D01*
X110867328Y-77510137D01*
X110887293Y-77507616D01*
X110930770Y-77490401D01*
X110936276Y-77488516D01*
X110981191Y-77475468D01*
X110998515Y-77465221D01*
X111015983Y-77456663D01*
X111034703Y-77449253D01*
X111072542Y-77421759D01*
X111077406Y-77418565D01*
X111117656Y-77394763D01*
X111117656Y-77394762D01*
X111121034Y-77392765D01*
X111184152Y-77375499D01*
X112012502Y-77375499D01*
X112012508Y-77375499D01*
X112115297Y-77364999D01*
X112281834Y-77309814D01*
X112431156Y-77217712D01*
X112555212Y-77093656D01*
X112647314Y-76944334D01*
X112702499Y-76777797D01*
X112713000Y-76675009D01*
X112713000Y-76450000D01*
X113012501Y-76450000D01*
X113012501Y-76674986D01*
X113022994Y-76777697D01*
X113078141Y-76944119D01*
X113078143Y-76944124D01*
X113170184Y-77093345D01*
X113294154Y-77217315D01*
X113443375Y-77309356D01*
X113443380Y-77309358D01*
X113609802Y-77364505D01*
X113609809Y-77364506D01*
X113712519Y-77374999D01*
X114049999Y-77374999D01*
X114050000Y-77374998D01*
X114050000Y-76450000D01*
X114550000Y-76450000D01*
X114550000Y-77374999D01*
X114887472Y-77374999D01*
X114887486Y-77374998D01*
X114990197Y-77364505D01*
X115156619Y-77309358D01*
X115156624Y-77309356D01*
X115305845Y-77217315D01*
X115429815Y-77093345D01*
X115521856Y-76944124D01*
X115521858Y-76944119D01*
X115577005Y-76777697D01*
X115577006Y-76777690D01*
X115587499Y-76674986D01*
X115587500Y-76674973D01*
X115587500Y-76450000D01*
X114550000Y-76450000D01*
X114050000Y-76450000D01*
X113012501Y-76450000D01*
X112713000Y-76450000D01*
X112712999Y-75950000D01*
X113012500Y-75950000D01*
X114050000Y-75950000D01*
X114050000Y-75025000D01*
X114550000Y-75025000D01*
X114550000Y-75950000D01*
X115587499Y-75950000D01*
X115587499Y-75725028D01*
X115587498Y-75725013D01*
X115577005Y-75622302D01*
X115521858Y-75455880D01*
X115521856Y-75455875D01*
X115429815Y-75306654D01*
X115305845Y-75182684D01*
X115156624Y-75090643D01*
X115156619Y-75090641D01*
X114990197Y-75035494D01*
X114990190Y-75035493D01*
X114887486Y-75025000D01*
X114550000Y-75025000D01*
X114050000Y-75025000D01*
X113712528Y-75025000D01*
X113712512Y-75025001D01*
X113609802Y-75035494D01*
X113443380Y-75090641D01*
X113443375Y-75090643D01*
X113294154Y-75182684D01*
X113170184Y-75306654D01*
X113078143Y-75455875D01*
X113078141Y-75455880D01*
X113022994Y-75622302D01*
X113022993Y-75622309D01*
X113012500Y-75725013D01*
X113012500Y-75950000D01*
X112712999Y-75950000D01*
X112712999Y-75724992D01*
X112702499Y-75622203D01*
X112647314Y-75455666D01*
X112555212Y-75306344D01*
X112431156Y-75182288D01*
X112281834Y-75090186D01*
X112115297Y-75035001D01*
X112115295Y-75035000D01*
X112012510Y-75024500D01*
X110837498Y-75024500D01*
X110837481Y-75024501D01*
X110734703Y-75035000D01*
X110734700Y-75035001D01*
X110568168Y-75090185D01*
X110568163Y-75090187D01*
X110418842Y-75182289D01*
X110294789Y-75306342D01*
X110202687Y-75455663D01*
X110202685Y-75455668D01*
X110202615Y-75455880D01*
X110147501Y-75622203D01*
X110147501Y-75622204D01*
X110147500Y-75622204D01*
X110137000Y-75724983D01*
X110137000Y-75724991D01*
X110137000Y-75950000D01*
X110137001Y-76143500D01*
X110117317Y-76210539D01*
X110064513Y-76256294D01*
X110013001Y-76267500D01*
X107421356Y-76267500D01*
X107401960Y-76265973D01*
X107394804Y-76264840D01*
X107394803Y-76264840D01*
X107369574Y-76267225D01*
X107363736Y-76267500D01*
X107021287Y-76267500D01*
X106954248Y-76247815D01*
X106908493Y-76195011D01*
X106898549Y-76125853D01*
X106925738Y-76064466D01*
X106935133Y-76053108D01*
X106938792Y-76048685D01*
X106942711Y-76044377D01*
X109603786Y-73383302D01*
X109616048Y-73373480D01*
X109615865Y-73373259D01*
X109621867Y-73368292D01*
X109621877Y-73368286D01*
X109669241Y-73317848D01*
X109690120Y-73296970D01*
X109694373Y-73291486D01*
X109698150Y-73287063D01*
X109730062Y-73253082D01*
X109739714Y-73235523D01*
X109750389Y-73219272D01*
X109762674Y-73203436D01*
X109781186Y-73160652D01*
X109783742Y-73155435D01*
X109806197Y-73114592D01*
X109811180Y-73095180D01*
X109817477Y-73076791D01*
X109825438Y-73058395D01*
X109832729Y-73012353D01*
X109833908Y-73006662D01*
X109845500Y-72961519D01*
X109845500Y-72941483D01*
X109847027Y-72922082D01*
X109850160Y-72902304D01*
X109845775Y-72855915D01*
X109845500Y-72850077D01*
X109845500Y-71202737D01*
X109847224Y-71187123D01*
X109846938Y-71187096D01*
X109847672Y-71179333D01*
X109845500Y-71110203D01*
X109845500Y-71080651D01*
X109845500Y-71080650D01*
X109844629Y-71073759D01*
X109844172Y-71067945D01*
X109842709Y-71021373D01*
X109837121Y-71002139D01*
X109833174Y-70983081D01*
X109830664Y-70963208D01*
X109813507Y-70919875D01*
X109811614Y-70914346D01*
X109798618Y-70869614D01*
X109798617Y-70869610D01*
X109788420Y-70852368D01*
X109779863Y-70834902D01*
X109772486Y-70816268D01*
X109745083Y-70778550D01*
X109741900Y-70773705D01*
X109718170Y-70733579D01*
X109718165Y-70733573D01*
X109704005Y-70719413D01*
X109691370Y-70704620D01*
X109679593Y-70688412D01*
X109643693Y-70658713D01*
X109639381Y-70654790D01*
X107464319Y-68479728D01*
X107430834Y-68418405D01*
X107428000Y-68392047D01*
X107428000Y-67785238D01*
X107429723Y-67769621D01*
X107429438Y-67769594D01*
X107430172Y-67761832D01*
X107428000Y-67692703D01*
X107428000Y-67663151D01*
X107428000Y-67663150D01*
X107427129Y-67656259D01*
X107426672Y-67650445D01*
X107425209Y-67603872D01*
X107419622Y-67584644D01*
X107415674Y-67565584D01*
X107413163Y-67545704D01*
X107396012Y-67502387D01*
X107394119Y-67496858D01*
X107381118Y-67452109D01*
X107381116Y-67452106D01*
X107370923Y-67434871D01*
X107362361Y-67417394D01*
X107354987Y-67398770D01*
X107354986Y-67398768D01*
X107327579Y-67361045D01*
X107324388Y-67356186D01*
X107300672Y-67316083D01*
X107300665Y-67316074D01*
X107286506Y-67301915D01*
X107273868Y-67287119D01*
X107266384Y-67276818D01*
X107262094Y-67270913D01*
X107226188Y-67241209D01*
X107221876Y-67237286D01*
X106276818Y-66292228D01*
X106243333Y-66230905D01*
X106240499Y-66204547D01*
X106240499Y-66040000D01*
X108314540Y-66040000D01*
X108334326Y-66228256D01*
X108334327Y-66228259D01*
X108392818Y-66408277D01*
X108392821Y-66408284D01*
X108487467Y-66572216D01*
X108576627Y-66671238D01*
X108614129Y-66712888D01*
X108767265Y-66824148D01*
X108767270Y-66824151D01*
X108940192Y-66901142D01*
X108940197Y-66901144D01*
X109125354Y-66940500D01*
X109125355Y-66940500D01*
X109314644Y-66940500D01*
X109314646Y-66940500D01*
X109499803Y-66901144D01*
X109672730Y-66824151D01*
X109825871Y-66712888D01*
X109828788Y-66709647D01*
X109831600Y-66706526D01*
X109891087Y-66669879D01*
X109923748Y-66665500D01*
X110325501Y-66665500D01*
X110392540Y-66685185D01*
X110438295Y-66737989D01*
X110449501Y-66789500D01*
X110449501Y-66840018D01*
X110460000Y-66942796D01*
X110460001Y-66942799D01*
X110515185Y-67109331D01*
X110515187Y-67109336D01*
X110549080Y-67164285D01*
X110607288Y-67258656D01*
X110731344Y-67382712D01*
X110880666Y-67474814D01*
X111047203Y-67529999D01*
X111149991Y-67540500D01*
X112450008Y-67540499D01*
X112552797Y-67529999D01*
X112719334Y-67474814D01*
X112868656Y-67382712D01*
X112992712Y-67258656D01*
X113084814Y-67109334D01*
X113084814Y-67109333D01*
X113088448Y-67103442D01*
X113140396Y-67056717D01*
X113209358Y-67045494D01*
X113273441Y-67073337D01*
X113281668Y-67080856D01*
X113428921Y-67228108D01*
X113622421Y-67363600D01*
X113836507Y-67463429D01*
X113836516Y-67463433D01*
X114050000Y-67520634D01*
X114050000Y-66475501D01*
X114157685Y-66524680D01*
X114264237Y-66540000D01*
X114335763Y-66540000D01*
X114442315Y-66524680D01*
X114550000Y-66475501D01*
X114550000Y-67520633D01*
X114763483Y-67463433D01*
X114763492Y-67463429D01*
X114977577Y-67363600D01*
X114977579Y-67363599D01*
X115171073Y-67228113D01*
X115171079Y-67228108D01*
X115338108Y-67061079D01*
X115338113Y-67061073D01*
X115473599Y-66867579D01*
X115473600Y-66867577D01*
X115573429Y-66653492D01*
X115573433Y-66653483D01*
X115634567Y-66425326D01*
X115634569Y-66425315D01*
X115646407Y-66290000D01*
X114733686Y-66290000D01*
X114759493Y-66249844D01*
X114800000Y-66111889D01*
X114800000Y-65968111D01*
X114759493Y-65830156D01*
X114733686Y-65790000D01*
X115646407Y-65790000D01*
X115646407Y-65789999D01*
X115634569Y-65654684D01*
X115634567Y-65654673D01*
X115573433Y-65426516D01*
X115573429Y-65426507D01*
X115473600Y-65212422D01*
X115473599Y-65212420D01*
X115338113Y-65018926D01*
X115338108Y-65018920D01*
X115171082Y-64851894D01*
X114977578Y-64716399D01*
X114763492Y-64616570D01*
X114763486Y-64616567D01*
X114550000Y-64559364D01*
X114550000Y-65604498D01*
X114442315Y-65555320D01*
X114335763Y-65540000D01*
X114264237Y-65540000D01*
X114157685Y-65555320D01*
X114050000Y-65604498D01*
X114050000Y-64559364D01*
X114049999Y-64559364D01*
X113836513Y-64616567D01*
X113836507Y-64616570D01*
X113622422Y-64716399D01*
X113622420Y-64716400D01*
X113428926Y-64851886D01*
X113281668Y-64999144D01*
X113220345Y-65032628D01*
X113150653Y-65027644D01*
X113094720Y-64985772D01*
X113088448Y-64976558D01*
X113050919Y-64915714D01*
X112992712Y-64821344D01*
X112868656Y-64697288D01*
X112719334Y-64605186D01*
X112552797Y-64550001D01*
X112552795Y-64550000D01*
X112450010Y-64539500D01*
X111149998Y-64539500D01*
X111149981Y-64539501D01*
X111047203Y-64550000D01*
X111047200Y-64550001D01*
X110880668Y-64605185D01*
X110880663Y-64605187D01*
X110731342Y-64697289D01*
X110607289Y-64821342D01*
X110515187Y-64970663D01*
X110515185Y-64970668D01*
X110512573Y-64978550D01*
X110460001Y-65137203D01*
X110460001Y-65137204D01*
X110460000Y-65137204D01*
X110449500Y-65239983D01*
X110449500Y-65290500D01*
X110429815Y-65357539D01*
X110377011Y-65403294D01*
X110325500Y-65414500D01*
X109923748Y-65414500D01*
X109856709Y-65394815D01*
X109831600Y-65373474D01*
X109825873Y-65367114D01*
X109825869Y-65367110D01*
X109672734Y-65255851D01*
X109672729Y-65255848D01*
X109499807Y-65178857D01*
X109499802Y-65178855D01*
X109354001Y-65147865D01*
X109314646Y-65139500D01*
X109125354Y-65139500D01*
X109092897Y-65146398D01*
X108940197Y-65178855D01*
X108940192Y-65178857D01*
X108767270Y-65255848D01*
X108767265Y-65255851D01*
X108614129Y-65367111D01*
X108487466Y-65507785D01*
X108392821Y-65671715D01*
X108392818Y-65671722D01*
X108349378Y-65805419D01*
X108334326Y-65851744D01*
X108314540Y-66040000D01*
X106240499Y-66040000D01*
X106240499Y-65805419D01*
X106250697Y-65756174D01*
X106285437Y-65675896D01*
X106310160Y-65519804D01*
X106295287Y-65362467D01*
X106269378Y-65290500D01*
X106241756Y-65213776D01*
X106241754Y-65213774D01*
X106241754Y-65213772D01*
X106152923Y-65083062D01*
X106152920Y-65083059D01*
X106034380Y-64978551D01*
X105893569Y-64906805D01*
X105893565Y-64906803D01*
X105893564Y-64906803D01*
X105893562Y-64906802D01*
X105893555Y-64906800D01*
X105864449Y-64900294D01*
X105803318Y-64866459D01*
X105770185Y-64804945D01*
X105767500Y-64779281D01*
X105767500Y-62811280D01*
X105787185Y-62744241D01*
X105803814Y-62723604D01*
X107081893Y-61445524D01*
X107096674Y-61432899D01*
X107112967Y-61421063D01*
X107142780Y-61385024D01*
X107146690Y-61380727D01*
X107151623Y-61375796D01*
X107169787Y-61352378D01*
X107214026Y-61298903D01*
X107214027Y-61298900D01*
X107218206Y-61292316D01*
X107218447Y-61292469D01*
X107220682Y-61288821D01*
X107220437Y-61288676D01*
X107224405Y-61281965D01*
X107224408Y-61281962D01*
X107251981Y-61218244D01*
X107281531Y-61155449D01*
X107281532Y-61155441D01*
X107283941Y-61148031D01*
X107284211Y-61148118D01*
X107285470Y-61144027D01*
X107285197Y-61143948D01*
X107287369Y-61136467D01*
X107287374Y-61136458D01*
X107298234Y-61067886D01*
X107311239Y-60999714D01*
X107311238Y-60999709D01*
X107311728Y-60991931D01*
X107312013Y-60991948D01*
X107312214Y-60987678D01*
X107311930Y-60987670D01*
X107312175Y-60979870D01*
X107305643Y-60910771D01*
X107301284Y-60841488D01*
X107301284Y-60841484D01*
X107301282Y-60841478D01*
X107299821Y-60833818D01*
X107300100Y-60833764D01*
X107299234Y-60829580D01*
X107298956Y-60829643D01*
X107297254Y-60822030D01*
X107297254Y-60822027D01*
X107273743Y-60756722D01*
X107252291Y-60690700D01*
X107252287Y-60690694D01*
X107248969Y-60683642D01*
X107249227Y-60683520D01*
X107247347Y-60679680D01*
X107247093Y-60679810D01*
X107243549Y-60672855D01*
X107204537Y-60615452D01*
X107167336Y-60556832D01*
X107162367Y-60550825D01*
X107162583Y-60550646D01*
X107159805Y-60547394D01*
X107159594Y-60547581D01*
X107154437Y-60541732D01*
X107154435Y-60541729D01*
X107102373Y-60495830D01*
X107051767Y-60448307D01*
X107051763Y-60448305D01*
X107045460Y-60443725D01*
X107045626Y-60443496D01*
X107042123Y-60441034D01*
X107041965Y-60441268D01*
X107035510Y-60436881D01*
X106973665Y-60405369D01*
X106912835Y-60371928D01*
X106905583Y-60369057D01*
X106905686Y-60368796D01*
X106901679Y-60367283D01*
X106901585Y-60367547D01*
X106894249Y-60364906D01*
X106894247Y-60364905D01*
X106826515Y-60349765D01*
X106759272Y-60332500D01*
X106759270Y-60332500D01*
X106751528Y-60331522D01*
X106751563Y-60331240D01*
X106747318Y-60330772D01*
X106747292Y-60331054D01*
X106739524Y-60330319D01*
X106670140Y-60332500D01*
X91522965Y-60332500D01*
X91507314Y-60330772D01*
X91507288Y-60331054D01*
X91499525Y-60330319D01*
X91430154Y-60332500D01*
X91400521Y-60332500D01*
X91393607Y-60333373D01*
X91387790Y-60333830D01*
X91341058Y-60335299D01*
X91341054Y-60335300D01*
X91321722Y-60340916D01*
X91302682Y-60344859D01*
X91282708Y-60347383D01*
X91282701Y-60347385D01*
X91239239Y-60364592D01*
X91233712Y-60366485D01*
X91188809Y-60379531D01*
X91188808Y-60379531D01*
X91171474Y-60389782D01*
X91154012Y-60398336D01*
X91135300Y-60405745D01*
X91135295Y-60405748D01*
X91097473Y-60433226D01*
X91092591Y-60436433D01*
X91052341Y-60460238D01*
X91038107Y-60474472D01*
X91023318Y-60487104D01*
X91007032Y-60498937D01*
X90977227Y-60534963D01*
X90973295Y-60539285D01*
X88514953Y-62997626D01*
X88502669Y-63007469D01*
X88502849Y-63007687D01*
X88496838Y-63012659D01*
X88449322Y-63063258D01*
X88428375Y-63084205D01*
X88424106Y-63089709D01*
X88420315Y-63094147D01*
X88388308Y-63128230D01*
X88388305Y-63128234D01*
X88378606Y-63145877D01*
X88367928Y-63162133D01*
X88355594Y-63178034D01*
X88355589Y-63178042D01*
X88337025Y-63220943D01*
X88334454Y-63226191D01*
X88311927Y-63267167D01*
X88306920Y-63286668D01*
X88300621Y-63305064D01*
X88293893Y-63320612D01*
X88292625Y-63323544D01*
X88292624Y-63323546D01*
X88285312Y-63369716D01*
X88284127Y-63375438D01*
X88272500Y-63420723D01*
X88272500Y-63440858D01*
X88270973Y-63460257D01*
X88267825Y-63480131D01*
X83820500Y-63480131D01*
X83820500Y-56004500D01*
X83840185Y-55937461D01*
X83892989Y-55891706D01*
X83944500Y-55880500D01*
X126875500Y-55880500D01*
X126942539Y-55900185D01*
G37*
%TD.AperFunction*%
%TD*%
M02*
